<?xml version="1.0" encoding="UTF-8"?><svg id="_이어_2" xmlns="http://www.w3.org/2000/svg" viewBox="0 0 200 210.25"><defs><style>.cls-1{fill:#e68077;}.cls-2{fill:#c35f46;}.cls-3{fill:#ffe45f;}</style></defs><g id="_이어_1-2"><g><path class="cls-3" d="M198.75,103.82c1.04,3.94,.99,8.22-.56,11.98-1.82,4.32-5.41,7.57-8.39,11.2-2.94,3.55-5.32,7.57-6.96,11.85,1.17,15.58-.13,28.23-1.53,36.85-2.69,16.58-4.58,27.22-13.12,31.69-5.32,2.78-13.03,3.07-19.53,0-4.63-2.19-7.41-5.49-8.75-7.36-4.2,6.85-11.73,10.8-19.42,10.15-9.6-.81-14.77-8.39-15.42-9.37-.59,.74-7.83,9.48-19.45,8.54-10.02-.82-15.56-8.2-16.37-9.31-5.58,6.17-13.86,8.92-21.32,6.92-9.7-2.6-16.59-12.86-15.31-24.26-1.56-.82-3.03-1.82-4.37-2.81-4.45-3.24-11.2-9.51-16.86-17.47-1.38-1.95-.91-4.67,1.04-6.01,1.95-1.43,4.67-.95,6.01,.99,4.54,6.4,9.9,11.59,13.66,14.57,0-3.2,.09-6.7,.26-10.46,.26-6.27,.78-12.41,1.47-18.29-2.42-4.24-5.28-8.3-8.47-11.98-2.9-3.37-6.18-6.53-8.17-10.46-1.99-3.98-2.51-9.08,.09-12.67,.99-1.38,2.33-2.42,3.81-3.24,6.01-3.37,13.97-2.55,19.29,1.73,1.6-6.66,3.24-12.41,4.63-17.04C17.31,87.35-.55,68.23,.01,45.96,.62,24.17,17.22,6.49,38.41,6.49c9.25,0,19.89,3.37,26.51,8.99,8.3,7,12.63,20.54,12.89,32.52,8.04-4.02,16.95-6.49,25.9-6.49,6.53,0,13.15,.74,19.5,2.21,.04-1.08,.04-2.12,.04-3.16,0-12.28,2.25-24.34,10.77-31.57,6.66-5.62,18.38-8.99,27.63-8.99,21.19,0,38.35,18.77,38.35,40.56,0,18.07-15.52,35.5-32.91,40.95,1.95,5.79,4.58,13.27,7.22,21.62,2.81-2.81,6.31-4.93,10.12-6.14,3.94-1.21,8.78-1.21,11.68,1.69,1.38,1.38,2.12,3.24,2.64,5.15Z"/><circle class="cls-2" cx="134.42" cy="98.38" r="4.29"/><circle class="cls-2" cx="84.69" cy="99.46" r="4.29"/><path class="cls-1" d="M98.96,107.89s-.04-.06-.05-.1c-.35-.87,.24-2,.99-2.44,.27-.16,.55-.23,.83-.25,.12-.17,.25-.34,.43-.47,.44-.33,1.02-.47,1.58-.42,.28-.09,.57-.13,.87-.1,.05-.07,.07-.14,.14-.21,.23-.23,.51-.38,.82-.48,.08-.08,.13-.17,.22-.24,.3-.23,.69-.35,1.08-.4,.08-.78,.63-1.51,1.34-1.79,.55-.22,1.07-.21,1.53-.03,.84-.59,2.06-.68,2.77,.19,.86,1.05,1.57,2.18,2.2,3.36,2.69,1.36,4.08,5.06,2.93,7.86-.26,.64-.67,1.12-1.3,1.38,.05,.29,.15,.55,.17,.85,.08,.83-.61,1.69-1.33,1.98-.17,.07-.33,.02-.49,.05-.08,.66-.47,1.3-1.04,1.63-.87,.51-1.88,.29-2.62-.34-.26-.22-.44-.51-.67-.75-.46,.1-.93,.03-1.38-.19-.13,.13-.25,.28-.41,.37-.81,.47-1.63,.33-2.29-.14-.51,.14-1.05,.11-1.54-.2-2.38-1.51-4-3.88-5.51-6.19-.63-.96-.2-2.34,.74-2.93Z"/><path class="cls-2" d="M102.86,107.45c-.14,0-.28,0-.42-.01-3.8-.3-7.28-2.88-8.67-6.41-.56-1.42,.14-3.03,1.56-3.59,1.42-.55,3.03,.14,3.59,1.56,.63,1.59,2.25,2.79,3.95,2.92,.87,.15,3.16-1.36,4.87-2.92,.83-.76,2.04-.94,3.06-.45,2.2,1.05,5.1,1.72,5.84,1.4,.79-.48,.98-.94,1.05-1.3,.22-1.14-.54-2.6-.78-2.91-1.05-1.11-.96-2.82,.15-3.87,1.11-1.05,2.9-.96,3.95,.16,.87,.93,2.63,4.04,2.18,7.29-.32,2.27-1.61,4.13-3.73,5.4-2.76,1.65-6.88,.52-9.37-.45-1.76,1.37-4.59,3.19-7.22,3.19Z"/><path class="cls-2" d="M109.46,122.03c-1.89,0-4.11-.55-6.66-1.96-6.51-3.6-9.11-12.18-8.25-18.42,.21-1.51,1.62-2.58,3.12-2.36,1.52,.21,2.57,1.6,2.37,3.12-.69,5.02,1.75,10.77,5.44,12.81,3.58,1.98,5.72,1.71,7.61-.98,1.78-2.52,1.25-4.73,.69-7.08-.23-.95-.42-1.81-.47-2.54-.1-1.52,1.05-2.85,2.57-2.95,1.55-.11,2.85,1.05,2.95,2.57,.03,.47,.18,1.02,.33,1.63,.63,2.62,1.67,7-1.56,11.56-1.41,1.99-4.04,4.59-8.16,4.59Z"/></g></g></svg>