<?xml version="1.0" encoding="UTF-8"?><svg id="_이어_2" xmlns="http://www.w3.org/2000/svg" viewBox="0 0 300 180.48"><defs><style>.cls-1{fill:#ea6a8f;}.cls-2{fill:#fae3ed;}.cls-3{fill:#f3b7d2;}</style></defs><g id="_이어_1-2"><rect class="cls-3" x="2.39" y="1.46" width="297.09" height="177.57" rx="4.84" ry="4.84"/><rect class="cls-2" x="9.22" y="26.73" width="283.43" height="146.62" rx="2.23" ry="2.23"/><g><path class="cls-1" d="M293.7,180.48H6.3c-3.47,0-6.3-2.82-6.3-6.29V6.3C0,2.82,2.83,0,6.3,0H293.7c3.47,0,6.3,2.82,6.3,6.3V174.19c0,3.47-2.83,6.29-6.3,6.29ZM6.3,2.91c-1.87,0-3.39,1.52-3.39,3.38V174.19c0,1.87,1.52,3.38,3.39,3.38H293.7c1.87,0,3.39-1.52,3.39-3.38V6.3c0-1.87-1.52-3.38-3.39-3.38H6.3Z"/><path class="cls-1" d="M289.29,174.05H10.71c-2.14,0-3.88-1.74-3.88-3.88V29.89c0-2.14,1.74-3.88,3.88-3.88H289.29c2.14,0,3.88,1.74,3.88,3.88V170.18c0,2.14-1.74,3.88-3.88,3.88ZM10.71,28.93c-.53,0-.96,.43-.96,.97V170.18c-.25,2.89,278.61-.06,279.55,.97,.53,0,.97-.43,.97-.97V29.89c0-.53-.43-.97-.97-.97H10.71Z"/><g><path class="cls-1" d="M291.06,24.72h-19.21c-.4,0-.73-.33-.73-.73V4.78c0-.4,.33-.73,.73-.73h19.21c.4,0,.73,.33,.73,.73V23.99c0,.4-.33,.73-.73,.73Zm-18.48-1.46h17.75V5.51h-17.75V23.26Z"/><g><path class="cls-1" d="M276.02,21.27c-1.24,.04-1.96-1.62-1.03-2.48l10.87-10.86c1.31-1.35,3.42,.74,2.06,2.06l-10.87,10.86c-.28,.28-.66,.43-1.03,.43Z"/><path class="cls-1" d="M286.89,21.28c-.37,0-.74-.14-1.03-.43l-10.86-10.87c-1.35-1.31,.74-3.42,2.06-2.06l10.86,10.87c.93,.86,.22,2.53-1.03,2.48Z"/></g><path class="cls-1" d="M266.94,24.72h-19.21c-.4,0-.73-.33-.73-.73V4.78c0-.4,.33-.73,.73-.73h19.21c.4,0,.73,.33,.73,.73V23.99c0,.4-.33,.73-.73,.73Zm-18.48-1.46h17.75V5.51h-17.75V23.26Z"/><path class="cls-1" d="M262.89,21.39h-11.1c-.8,0-1.46-.65-1.46-1.46V8.84c0-.8,.65-1.46,1.46-1.46h11.1c.8,0,1.46,.65,1.46,1.46v11.1c0,.8-.65,1.46-1.46,1.46Zm-9.64-2.91h8.19V10.29h-8.19v8.19Z"/><path class="cls-1" d="M242.83,24.72h-19.21c-.4,0-.73-.33-.73-.73V4.78c0-.4,.33-.73,.73-.73h19.21c.4,0,.73,.33,.73,.73V23.99c0,.4-.33,.73-.73,.73Zm-18.48-1.46h17.75V5.51h-17.75V23.26Z"/><path class="cls-1" d="M239.27,20.97h-12.1c-1.9,0-1.91-2.9,0-2.91h12.1c1.9,0,1.91,2.9,0,2.91Z"/></g></g></g></svg>